<?xml version="1.0" standalone="no"?>
<!DOCTYPE svg PUBLIC "-//W3C//DTD SVG 20010904//EN"
 "http://www.w3.org/TR/2001/REC-SVG-20010904/DTD/svg10.dtd">
<svg version="1.0" xmlns="http://www.w3.org/2000/svg"
 width="16.000000pt" height="16.000000pt" viewBox="0 0 16.000000 16.000000"
 preserveAspectRatio="xMidYMid meet">

<g transform="translate(0.000000,16.000000) scale(0.100000,-0.100000)"
fill="#000000" stroke="none">
<path d="M43 127 c-52 -26 -56 -51 -13 -92 l30 -29 50 24 c27 13 50 28 50 33
0 5 -8 6 -17 2 -10 -4 -26 -7 -35 -7 -9 0 -19 -6 -22 -14 -3 -8 -12 -14 -19
-14 -16 0 -53 37 -45 45 3 3 11 -1 18 -10 18 -21 37 -19 51 6 6 12 14 17 18
12 4 -7 15 -7 30 -1 l24 9 -28 29 c-34 35 -37 35 -92 7z m82 -7 c10 -11 16
-21 14 -21 -41 -13 -88 13 -58 32 20 12 24 12 44 -11z m-61 -29 c12 -13 14
-21 6 -26 -13 -8 -52 24 -44 36 8 14 19 11 38 -10z"/>
</g>
</svg>
